<svg xmlns="http://www.w3.org/2000/svg" viewBox="0 0 573.23 129.63"><defs><style>.cls-1,.cls-6{fill:#fff;}.cls-2,.cls-3,.cls-4,.cls-5{fill:none;stroke-miterlimit:10;}.cls-2,.cls-5{stroke:#000;}.cls-2{stroke-linecap:square;stroke-width:3px;}.cls-3,.cls-4{stroke:#fff;}.cls-3{stroke-width:10px;}.cls-4,.cls-5{stroke-width:4px;}.cls-6{font-size:88px;font-family:CourierNewPSMT, Courier New;letter-spacing:-0.15em;}.cls-7{letter-spacing:-0.08em;}.cls-8{letter-spacing:-0.18em;}.cls-9{letter-spacing:-0.15em;}.cls-10{letter-spacing:-0.11em;}.cls-11{letter-spacing:-0.08em;}.cls-12{letter-spacing:-0.09em;}.cls-13{letter-spacing:-0.03em;}.cls-14{letter-spacing:-0.13em;}.cls-15{letter-spacing:-0.16em;}.cls-16{letter-spacing:-0.14em;}</style></defs><title>circle_logo_rev2</title><g id="レイヤー_2" data-name="レイヤー 2"><g id="レイヤー_1のコピー" data-name="レイヤー 1のコピー"><rect class="cls-1" y="15.73" width="92" height="66.65" rx="7" ry="7"/><line class="cls-2" x1="11.23" y1="48.4" x2="79.91" y2="48.4"/><polyline class="cls-3" points="43.27 43.09 43.44 43.49 43.61 43.89 43.78 44.29 43.95 44.7 44.12 45.1 44.29 45.51 44.46 45.92 44.63 46.33 44.8 46.73 44.97 47.14 45.14 47.55 45.31 47.96 45.48 48.37 45.65 48.78 45.82 49.2 45.99 49.61 46.16 50.02 46.33 50.43 46.5 50.84 46.67 51.25 46.84 51.65 47.01 52.06 47.18 52.47 47.34 52.87 47.52 53.28 47.69 53.68 47.85 54.08"/><polyline class="cls-4" points="43.27 43.09 43.44 43.49 43.61 43.89 43.78 44.29 43.95 44.7 44.12 45.1 44.29 45.51 44.46 45.92 44.63 46.33 44.8 46.73 44.97 47.14 45.14 47.55 45.31 47.96 45.48 48.37 45.65 48.78 45.82 49.2 45.99 49.61 46.16 50.02 46.33 50.43 46.5 50.84 46.67 51.25 46.84 51.65 47.01 52.06 47.18 52.47 47.34 52.87 47.52 53.28 47.69 53.68 47.85 54.08"/><polyline class="cls-5" points="15.09 48.78 15.26 48.37 15.43 47.96 15.6 47.55 15.77 47.14 15.94 46.73 16.11 46.33 16.28 45.92 16.45 45.51 16.62 45.1 16.79 44.7 16.95 44.29 17.13 43.89 17.3 43.49 17.46 43.09 17.63 42.69 17.8 42.3 17.97 41.9 18.14 41.51 18.31 41.12 18.48 40.73 18.65 40.35 18.82 39.97 18.99 39.59 19.16 39.21 19.33 38.84 19.5 38.47 19.67 38.1 19.84 37.73 20.01 37.37 20.18 37.02 20.35 36.66 20.52 36.31 20.69 35.97 20.86 35.62 21.03 35.28 21.2 34.95 21.37 34.62 21.54 34.29 21.71 33.97 21.88 33.66 22.05 33.34 22.22 33.04 22.39 32.73 22.56 32.44 22.73 32.14 22.9 31.85 23.07 31.57 23.24 31.29 23.41 31.02 23.58 30.75 23.75 30.49 23.92 30.24 24.09 29.99 24.26 29.74 24.43 29.5 24.59 29.27 24.77 29.05 24.93 28.82 25.11 28.61 25.27 28.4 25.44 28.2 25.61 28 25.78 27.81 25.95 27.63 26.12 27.45 26.29 27.28 26.46 27.12 26.63 26.96 26.8 26.81 26.97 26.67 27.14 26.53 27.31 26.4 27.48 26.28 27.65 26.16 27.82 26.05 27.99 25.95 28.16 25.85 28.33 25.76 28.5 25.68 28.67 25.61 28.84 25.54 29.01 25.48 29.18 25.42 29.35 25.38 29.52 25.34 29.69 25.3 29.86 25.28 30.03 25.26 30.2 25.25 30.37 25.25 30.54 25.25 30.71 25.26 30.88 25.28 31.05 25.3 31.22 25.34 31.39 25.38 31.56 25.42 31.73 25.48 31.9 25.54 32.06 25.61 32.23 25.68 32.41 25.76 32.58 25.85 32.74 25.95 32.91 26.05 33.08 26.16 33.25 26.28 33.42 26.4 33.59 26.53 33.76 26.67 33.93 26.81 34.1 26.96 34.27 27.12 34.44 27.28 34.61 27.45 34.78 27.63 34.95 27.81 35.12 28 35.29 28.2 35.46 28.4 35.63 28.61 35.8 28.82 35.97 29.05 36.14 29.27 36.31 29.5 36.48 29.74 36.65 29.99 36.82 30.24 36.99 30.49 37.16 30.75 37.33 31.02 37.5 31.29 37.67 31.57 37.84 31.85 38.01 32.14 38.18 32.44 38.35 32.73 38.52 33.04 38.69 33.34 38.86 33.66 39.03 33.97 39.2 34.29 39.37 34.62 39.54 34.95 39.7 35.28 39.88 35.62 40.05 35.97 40.22 36.31 40.38 36.66 40.55 37.02 40.72 37.37 40.89 37.73 41.06 38.1 41.23 38.47 41.4 38.84 41.57 39.21 41.74 39.59 41.91 39.97 42.08 40.35 42.25 40.73 42.42 41.12 42.59 41.51 42.76 41.9 42.93 42.3 43.1 42.69 43.27 43.09 43.44 43.49 43.61 43.89 43.78 44.29 43.95 44.7 44.12 45.1 44.29 45.51 44.46 45.92 44.63 46.33 44.8 46.73 44.97 47.14 45.14 47.55 45.31 47.96 45.48 48.37 45.65 48.78 45.82 49.2 45.99 49.61 46.16 50.02 46.33 50.43 46.5 50.84 46.67 51.25 46.84 51.65 47.01 52.06 47.18 52.47 47.34 52.87 47.52 53.28 47.69 53.68 47.85 54.08 48.02 54.48 48.19 54.88 48.36 55.27 48.53 55.67 48.7 56.06 48.87 56.45 49.04 56.84 49.21 57.22 49.38 57.6 49.55 57.98 49.72 58.36 49.89 58.73 50.06 59.1 50.23 59.47 50.4 59.84 50.57 60.2 50.74 60.55 50.91 60.91 51.08 61.26 51.25 61.6 51.42 61.95 51.59 62.29 51.76 62.62 51.93 62.95 52.1 63.28 52.27 63.6 52.44 63.91 52.61 64.23 52.78 64.53 52.95 64.84 53.12 65.14 53.29 65.43 53.46 65.72 53.63 66 53.8 66.28 53.97 66.55 54.14 66.82 54.31 67.08 54.48 67.33 54.65 67.58 54.82 67.83 54.98 68.07 55.16 68.3 55.33 68.53 55.49 68.75 55.66 68.96 55.83 69.17 56 69.37 56.17 69.57 56.34 69.76 56.51 69.94 56.68 70.12 56.85 70.29 57.02 70.45 57.19 70.61 57.36 70.76 57.53 70.9 57.7 71.04 57.87 71.17 58.04 71.29 58.21 71.41 58.38 71.52 58.55 71.62 58.72 71.72 58.89 71.81 59.06 71.89 59.23 71.97 59.4 72.03 59.57 72.09 59.74 72.15 59.91 72.19 60.08 72.23 60.25 72.27 60.42 72.29 60.59 72.31 60.76 72.32 60.93 72.32 61.1 72.32 61.27 72.31 61.44 72.29 61.61 72.27 61.78 72.23 61.95 72.19 62.12 72.15 62.29 72.09 62.46 72.03 62.63 71.97 62.8 71.89 62.97 71.81 63.13 71.72 63.3 71.62 63.47 71.52 63.64 71.41 63.81 71.29 63.98 71.17 64.15 71.04 64.32 70.9 64.49 70.76 64.66 70.61 64.83 70.45 65 70.29 65.17 70.12 65.34 69.94 65.51 69.76 65.68 69.57 65.85 69.37 66.02 69.17 66.19 68.96 66.36 68.75 66.53 68.53 66.7 68.3 66.87 68.07 67.04 67.83 67.21 67.58 67.38 67.33 67.55 67.08 67.72 66.82 67.89 66.55 68.06 66.28 68.23 66 68.4 65.72 68.57 65.43 68.74 65.14 68.91 64.84 69.08 64.53 69.25 64.23 69.42 63.91 69.59 63.6 69.76 63.28 69.93 62.95 70.1 62.62 70.27 62.29 70.44 61.95 70.61 61.6 70.78 61.26 70.94 60.91 71.11 60.55 71.28 60.2 71.45 59.84 71.62 59.47 71.79 59.1 71.96 58.73 72.13 58.36 72.3 57.98 72.47 57.6 72.64 57.22 72.81 56.84 72.98 56.45 73.15 56.06 73.32 55.67 73.49 55.27 73.66 54.88 73.83 54.48 74 54.08 74.17 53.68 74.34 53.28 74.51 52.87 74.68 52.47 74.85 52.06 75.02 51.65 75.19 51.25 75.36 50.84 75.53 50.43 75.7 50.02 75.87 49.61 76.04 49.2 76.21 48.78"/><text class="cls-6" transform="matrix(1, 0, 0, 1, 105.99, 69.82)">s<tspan class="cls-7" x="39.87" y="0">i</tspan><tspan class="cls-8" x="85.5" y="0">n</tspan><tspan class="cls-9" x="122.77" y="0">(</tspan><tspan class="cls-10" x="162.77" y="0">s</tspan><tspan class="cls-11" x="205.81" y="0">t</tspan><tspan class="cls-12" x="251.31" y="0">u</tspan><tspan class="cls-13" x="296.63" y="0">d</tspan><tspan class="cls-14" x="346.84" y="0">i</tspan><tspan class="cls-15" x="388.16" y="0">o</tspan><tspan class="cls-16" x="426.97" y="0">)</tspan></text></g></g></svg>